<svg xmlns="http://www.w3.org/2000/svg" viewBox="0 0 524.19 390.5"><defs><style>.cls-1{fill:#dd003f;}.cls-2{fill:#dcf836;}</style></defs><g id="Layer_2" data-name="Layer 2"><g id="Layer_1-2" data-name="Layer 1"><path class="cls-1" d="M110.33,88.06a56.72,56.72,0,0,1-2.46,17,34.41,34.41,0,0,1-8.42,14,40.78,40.78,0,0,1-15.92,9.58q-10,3.49-25.26,3.5H45.06v29.52c0,4.84-.08,8.59-.25,11.27S44,177.5,43,178.7a7.41,7.41,0,0,1-5.05,2.2,92.93,92.93,0,0,1-9.71.39H16.83a92.93,92.93,0,0,1-9.71-.39,7.43,7.43,0,0,1-5.05-2.2c-1-1.2-1.64-3.14-1.81-5.82S0,166.45,0,161.61V19.68Q0,12.43.26,8.42C.43,5.74,1,3.8,2.07,2.59A7.48,7.48,0,0,1,7.12.39,92.93,92.93,0,0,1,16.83,0H58.27Q73.55,0,83.53,3.5t15.92,9.58a34.31,34.31,0,0,1,8.42,14.11A57.22,57.22,0,0,1,110.33,44ZM49.21,87q10.09,0,13.08-3.37t3-10.87V59.31q0-7.52-3-10.75t-13.08-3.5H45.06V87Z"/><path class="cls-1" d="M242.67,129.49a70.32,70.32,0,0,1-2.46,18.26,44.4,44.4,0,0,1-8.42,16.58,45.17,45.17,0,0,1-15.92,12.17q-10,4.8-25.25,4.79H171.45q-15.28,0-25.25-4.79a45.12,45.12,0,0,1-15.93-12.17,44.4,44.4,0,0,1-8.42-16.58,70.32,70.32,0,0,1-2.46-18.26V51.8a70.91,70.91,0,0,1,2.46-18.13A44.28,44.28,0,0,1,130.27,17,45.24,45.24,0,0,1,146.2,4.79Q156.16,0,171.45,0h19.17q15.27,0,25.25,4.79A45.29,45.29,0,0,1,231.79,17a44.28,44.28,0,0,1,8.42,16.71,70.91,70.91,0,0,1,2.46,18.13ZM164.46,122a27.44,27.44,0,0,0,.64,6.48,9.19,9.19,0,0,0,2.46,4.4,10.4,10.4,0,0,0,5.05,2.59,37.1,37.1,0,0,0,8.42.78q10.36,0,13.47-3.37T197.61,122V59.31q0-7.52-3.11-10.88T181,45.06a37.1,37.1,0,0,0-8.42.78,10.4,10.4,0,0,0-5.05,2.59,9.28,9.28,0,0,0-2.46,4.4,27.44,27.44,0,0,0-.64,6.48Z"/><path class="cls-1" d="M327.36,90.65q15.54,29.26,25.12,45.71t14.63,24.86q5.06,8.42,6.74,11.14a9.11,9.11,0,0,1,1.68,4.27c0,1.9-1.13,3.15-3.37,3.76a46.54,46.54,0,0,1-10.87.9h-22a41.4,41.4,0,0,1-6.47-.39,8.11,8.11,0,0,1-4.28-2.2,28.46,28.46,0,0,1-4.4-5.82q-2.46-4-7.12-11.27l-20.2-38.07v38.07c0,4.84-.09,8.59-.26,11.27s-.78,4.62-1.82,5.82a7.39,7.39,0,0,1-5.05,2.2,92.8,92.8,0,0,1-9.71.39H268.57a93.15,93.15,0,0,1-9.72-.39,7.43,7.43,0,0,1-5.05-2.2c-1-1.2-1.64-3.14-1.81-5.82s-.26-6.43-.26-11.27V19.68q0-7.25.26-11.26c.17-2.68.78-4.62,1.81-5.83a7.48,7.48,0,0,1,5.05-2.2A93.15,93.15,0,0,1,268.57,0H280a92.8,92.8,0,0,1,9.71.39q3.51.39,5.05,2.2c1,1.21,1.64,3.15,1.82,5.83s.26,6.43.26,11.26V57.75L317,19.68q3.88-7.25,6.21-11.26a26.51,26.51,0,0,1,4.41-6,7.83,7.83,0,0,1,4.66-2.2q2.58-.25,7-.26h21a71.08,71.08,0,0,1,10.23.52c2.16.35,3.24,1.38,3.24,3.11a11.87,11.87,0,0,1-1,3.62q-1,2.6-5.57,11.14T353.26,43.9Q343.93,60.87,327.36,90.65Z"/><path class="cls-1" d="M397.54,181.29c-4.83,0-8.59-.08-11.26-.26s-4.62-.77-5.83-1.81a7.45,7.45,0,0,1-2.2-5.05,92.93,92.93,0,0,1-.39-9.71v-11.4c0-3.62.08-6.51.26-8.67a11,11,0,0,1,1.42-5,5.88,5.88,0,0,1,3.63-2.46,29.76,29.76,0,0,1,7.12-.65V45.06a29.85,29.85,0,0,1-7.12-.64A5.88,5.88,0,0,1,379.54,42a11,11,0,0,1-1.42-5.05c-.18-2.16-.26-5-.26-8.68V16.83a92.93,92.93,0,0,1,.39-9.71,7.48,7.48,0,0,1,2.2-5.05c1.21-1,3.15-1.64,5.83-1.81S392.71,0,397.54,0H428.1c4.84,0,8.59.09,11.27.26S444,1,445.2,2.07a7.52,7.52,0,0,1,2.2,5.05,92.93,92.93,0,0,1,.39,9.71v11.4q0,5.44-.26,8.68A11,11,0,0,1,446.1,42a5.83,5.83,0,0,1-3.62,2.46,30,30,0,0,1-7.12.64v91.17a29.87,29.87,0,0,1,7.12.65,5.83,5.83,0,0,1,3.62,2.46,11,11,0,0,1,1.43,5q.25,3.24.26,8.67v11.4a92.93,92.93,0,0,1-.39,9.71,7.5,7.5,0,0,1-2.2,5.05q-1.81,1.56-5.83,1.81c-2.68.18-6.43.26-11.27.26Z"/><path class="cls-1" d="M473.94,181.29c-4.83,0-8.59-.08-11.26-.26s-4.62-.77-5.83-1.81a7.45,7.45,0,0,1-2.2-5.05,92.93,92.93,0,0,1-.39-9.71v-11.4q0-5.43.26-8.67a10.9,10.9,0,0,1,1.43-5,5.83,5.83,0,0,1,3.62-2.46,29.76,29.76,0,0,1,7.12-.65V45.06a29.85,29.85,0,0,1-7.12-.64A5.83,5.83,0,0,1,456,42a10.9,10.9,0,0,1-1.43-5.05q-.25-3.24-.26-8.68V16.83a92.93,92.93,0,0,1,.39-9.71,7.48,7.48,0,0,1,2.2-5.05C458.06,1,460,.43,462.68.26S469.11,0,473.94,0h30.57q7.25,0,11.26.26c2.68.17,4.62.78,5.83,1.81a7.52,7.52,0,0,1,2.2,5.05,92.93,92.93,0,0,1,.39,9.71v11.4q0,5.44-.26,8.68A10.9,10.9,0,0,1,522.5,42a5.83,5.83,0,0,1-3.62,2.46,29.91,29.91,0,0,1-7.12.64v91.17a29.82,29.82,0,0,1,7.12.65,5.83,5.83,0,0,1,3.62,2.46,10.9,10.9,0,0,1,1.43,5q.26,3.24.26,8.67v11.4a92.93,92.93,0,0,1-.39,9.71,7.5,7.5,0,0,1-2.2,5.05q-1.82,1.56-5.83,1.81c-2.68.18-6.43.26-11.26.26Z"/><path class="cls-2" d="M69.19,325.48q-7.12-.28-8.27-4.56t-1.14-13.4V303a51.86,51.86,0,0,1,.86-10.69,8.57,8.57,0,0,1,3.42-5.56,15,15,0,0,1,7.42-2q4.83-.29,12.83-.29h16q6.86,0,10.7,3.28a18.43,18.43,0,0,1,5.56,8.84,51,51,0,0,1,2,13q.28,7.42.29,15.4a110.78,110.78,0,0,1-2.71,24.73,56.71,56.71,0,0,1-9.27,20.93A47.06,47.06,0,0,1,89.3,385.05q-11,5.44-27.81,5.45h-4q-16.83,0-27.8-5.28a49.63,49.63,0,0,1-17.54-13.4A48.79,48.79,0,0,1,2.9,353.57a77.34,77.34,0,0,1-2.71-20.1V247.92A77.91,77.91,0,0,1,2.9,228a48.71,48.71,0,0,1,9.26-18.39A49.88,49.88,0,0,1,29.7,196.16q11-5.26,27.8-5.27h4q16.83,0,27.81,5.45a47.15,47.15,0,0,1,17.53,14.48,56.71,56.71,0,0,1,9.27,20.93,110.78,110.78,0,0,1,2.71,24.73q0,8-.29,12.4t-2,6.41c-1.14,1.34-3,2.14-5.56,2.43a104.17,104.17,0,0,1-10.7.43H87.73A104,104,0,0,1,77,277.72c-2.57-.29-4.42-1.09-5.56-2.43s-1.81-3.46-2-6.41-.29-7.08-.29-12.4-.67-9.32-2-12-3.9-4-7.7-4-6.37,1.32-7.7,4-2,6.61-2,11.91V325q0,7.94,2,11.91c1.33,2.65,3.89,4,7.7,4s6.32-1.28,7.56-3.85S69,330.61,69.19,325.48Z"/><path class="cls-2" d="M256.25,368.83q0,8-.28,12.4c-.2,2.95-.86,5.09-2,6.41s-3,2.14-5.56,2.43a104.09,104.09,0,0,1-10.69.43H225.17a104,104,0,0,1-10.69-.43c-2.57-.29-4.42-1.09-5.56-2.43s-1.81-3.46-2-6.41-.29-7.08-.29-12.4V341.16H178.69v27.67q0,8-.29,12.4t-2,6.41c-1.14,1.34-3,2.14-5.56,2.43a104.17,104.17,0,0,1-10.7.43H147.61a104,104,0,0,1-10.69-.43c-2.57-.29-4.42-1.09-5.57-2.43s-1.8-3.46-2-6.41-.29-7.08-.29-12.4V245.07q0-13.69,5.28-23.95a49.7,49.7,0,0,1,14-17,59.58,59.58,0,0,1,20.25-10,90.14,90.14,0,0,1,48.19,0,59.53,59.53,0,0,1,20.24,10,49.84,49.84,0,0,1,14,17q5.27,10.26,5.27,23.95ZM206.63,253.34q0-8-4.41-12a14,14,0,0,0-9.56-4,13.83,13.83,0,0,0-9.69,4q-4.28,4-4.28,12v38.21h27.94Z"/><path class="cls-2" d="M331.53,283.85q7.13-34.5,10.12-53.47t5.13-27.66q2.14-8.68,5-10.26c1.9-1,5-1.57,9.41-1.57H380a101.36,101.36,0,0,1,10.7.43c2.56.28,4.42,1.09,5.56,2.42s1.8,3.47,2,6.42.29,7.08.29,12.4V368.83q0,8-.29,12.4t-2,6.41c-1.14,1.34-3,2.14-5.56,2.43a104.17,104.17,0,0,1-10.7.43H367.46a104.31,104.31,0,0,1-10.7-.43c-2.56-.29-4.42-1.09-5.56-2.43s-1.8-3.46-2-6.41-.29-7.08-.29-12.4V340q-1.71,11.13-2.71,17.26a41,41,0,0,1-2.28,9.12c-.85,2-1.9,3.19-3.13,3.57a17.58,17.58,0,0,1-5,.57H327a17.48,17.48,0,0,1-5-.57q-1.86-.57-3.14-3.57a45,45,0,0,1-2.42-9.12q-1.16-6.13-2.29-17.26v28.81q0,8-.28,12.4t-2,6.41c-1.14,1.34-3,2.14-5.56,2.43a104,104,0,0,1-10.69.43H283.05a104.09,104.09,0,0,1-10.69-.43c-2.57-.29-4.42-1.09-5.56-2.43s-1.81-3.46-2-6.41-.28-7.08-.28-12.4V212.56q0-8,.28-12.26a11.43,11.43,0,0,1,2-6.42,7.55,7.55,0,0,1,5.27-2.56,89.59,89.59,0,0,1,10.13-.43H301a48.13,48.13,0,0,1,7.27.43,6.87,6.87,0,0,1,4.56,3c1.24,1.71,2.28,4.47,3.14,8.27s1.9,9.13,3.13,16,2.81,15.59,4.71,26.23S328.29,268.45,331.53,283.85Z"/><path class="cls-2" d="M502.33,390.5h-73a104,104,0,0,1-10.69-.43c-2.57-.29-4.42-1.09-5.56-2.43s-1.81-3.46-2-6.41-.28-7.08-.28-12.4V212.56q0-8,.28-12.4t2-6.42q1.71-2,5.56-2.42a101.15,101.15,0,0,1,10.69-.43h73q8,0,12.4.28c2.95.2,5.09.86,6.42,2s2.14,3,2.42,5.56a101.28,101.28,0,0,1,.43,10.69V222a101.15,101.15,0,0,1-.43,10.69c-.28,2.57-1.09,4.42-2.42,5.57s-3.47,1.8-6.42,2-7.08.29-12.4.29H460.41v23.38h16.26q8,0,12.4.28c2.95.2,5.08.86,6.42,2s2.13,3,2.42,5.56a104.09,104.09,0,0,1,.43,10.69V295a104,104,0,0,1-.43,10.69q-.44,3.85-2.42,5.56c-1.34,1.14-3.47,1.81-6.42,2s-7.08.28-12.4.28H460.41v27.38h41.92q8,0,12.4.28c2.95.2,5.09.86,6.42,2s2.14,3,2.42,5.56a101.28,101.28,0,0,1,.43,10.69V372a101.15,101.15,0,0,1-.43,10.69q-.42,3.86-2.42,5.56c-1.33,1.15-3.47,1.81-6.42,2S507.65,390.5,502.33,390.5Z"/></g></g></svg>